<?xml version="1.0" standalone="no"?>
<!DOCTYPE svg PUBLIC "-//W3C//DTD SVG 20010904//EN"
 "http://www.w3.org/TR/2001/REC-SVG-20010904/DTD/svg10.dtd">
<svg version="1.0" xmlns="http://www.w3.org/2000/svg"
 width="1600.000000pt" height="1600.000000pt" viewBox="0 0 1600.000000 1600.000000"
 preserveAspectRatio="xMidYMid meet">
<metadata>
Created by potrace 1.11, written by Peter Selinger 2001-2013
</metadata>
<g transform="translate(0.000000,1600.000000) scale(0.100000,-0.100000)"
fill="#000000" stroke="none">
<path d="M7386 12237 c3 -10 9 -15 12 -12 3 3 0 11 -7 18 -10 9 -11 8 -5 -6z"/>
<path d="M7416 12207 c3 -10 9 -15 12 -12 3 3 0 11 -7 18 -10 9 -11 8 -5 -6z"/>
<path d="M5670 12181 c0 -6 4 -13 10 -16 6 -3 7 1 4 9 -7 18 -14 21 -14 7z"/>
<path d="M7440 12181 c0 -11 51 -85 61 -89 5 -2 9 -7 9 -12 0 -4 24 -43 53
-86 29 -44 70 -108 92 -144 21 -36 41 -67 44 -70 3 -3 13 -18 21 -35 8 -16 36
-63 62 -104 26 -41 48 -80 48 -87 0 -7 3 -14 8 -16 4 -1 23 -37 42 -78 19 -41
39 -79 46 -85 17 -16 60 -87 69 -115 4 -14 12 -31 18 -38 16 -20 57 -121 71
-172 6 -25 22 -64 34 -88 13 -24 20 -51 17 -61 -3 -10 1 -23 9 -30 8 -6 14
-26 14 -44 0 -18 8 -52 17 -77 9 -25 19 -53 22 -62 3 -10 13 -18 22 -19 9 0
11 -3 5 -5 -7 -3 -10 -14 -7 -25 4 -15 8 -17 20 -8 11 10 17 8 28 -7 36 -51
44 -58 51 -51 5 4 3 17 -4 28 -13 21 -8 73 8 94 5 6 0 21 -10 35 -16 21 -20
22 -34 11 -9 -8 -20 -11 -23 -7 -4 4 -2 11 6 15 10 7 9 9 -3 14 -9 4 -13 13
-10 22 4 9 13 14 21 10 11 -4 13 -1 9 11 -3 9 -9 27 -12 40 -4 15 -13 24 -26
24 -15 0 -19 5 -15 19 3 14 1 18 -9 14 -8 -3 -14 0 -14 6 0 6 5 11 10 11 14 0
12 20 -4 50 -49 92 -61 117 -63 133 -2 11 -12 31 -22 46 -10 14 -21 39 -25 55
-4 16 -17 43 -30 60 -13 17 -26 44 -30 59 -4 15 -11 25 -16 22 -6 -3 -10 2
-10 12 0 25 -106 228 -139 267 -13 15 -13 18 -1 14 8 -2 21 -16 30 -30 62
-105 80 -137 80 -146 0 -5 19 -29 42 -53 23 -23 36 -45 30 -47 -7 -2 -3 -16
12 -41 13 -20 34 -60 46 -89 12 -28 25 -50 29 -48 4 3 13 -15 20 -40 7 -24 16
-44 20 -44 3 0 14 -18 23 -40 13 -29 22 -38 34 -33 14 5 15 3 5 -15 -10 -18
-9 -21 4 -16 11 5 14 2 9 -12 -4 -14 -3 -16 4 -5 8 11 12 10 21 -5 10 -18 10
-18 11 4 0 12 -4 22 -9 22 -5 0 -12 13 -16 30 -6 29 -69 156 -86 175 -14 14
-10 35 6 35 8 0 15 -9 15 -20 0 -11 7 -20 16 -20 8 0 13 -4 10 -9 -4 -5 -1
-11 4 -13 6 -2 12 -13 12 -24 2 -20 19 -26 33 -12 4 3 -11 41 -31 85 -21 43
-44 92 -51 108 l-13 30 25 -30 c14 -16 25 -35 25 -41 0 -5 8 -19 18 -30 10
-10 28 -36 41 -57 12 -20 27 -35 32 -32 5 4 6 -1 2 -11 -5 -14 -3 -15 15 -5
14 7 19 17 15 31 -4 14 0 20 11 20 15 0 15 3 2 29 -9 16 -12 32 -8 36 4 5 1 5
-5 1 -7 -4 -13 -2 -13 4 0 7 -7 10 -15 7 -8 -4 -17 -2 -20 3 -4 6 -1 10 6 10
7 0 5 8 -6 20 -10 11 -13 20 -7 20 6 0 1 21 -13 49 -14 27 -25 54 -25 61 0 6
-5 8 -11 4 -6 -3 -15 0 -20 7 -7 11 -9 10 -9 -4 0 -15 -3 -15 -20 -5 -10 7
-17 14 -15 16 3 3 -32 46 -72 88 -7 7 -13 16 -13 21 0 5 -13 23 -30 41 -16 18
-30 38 -30 43 0 5 -9 19 -20 31 -11 12 -20 18 -20 13 0 -5 -7 0 -15 11 -15 18
-15 18 -9 -7 4 -19 1 -28 -11 -33 -9 -3 -13 -2 -10 4 3 5 -4 14 -16 21 -18 9
-21 9 -16 -4 3 -8 1 -19 -5 -25 -7 -7 -3 -12 11 -17 12 -3 21 -14 21 -23 -1
-16 -2 -16 -14 1 -7 9 -18 17 -25 17 -6 0 -11 5 -11 10 0 7 -6 7 -19 0 -11 -5
-22 -6 -25 -1 -8 12 4 20 20 14 19 -7 18 12 -2 32 -11 10 -25 14 -40 11 -19
-5 -24 -2 -24 13 0 11 -6 22 -12 25 -10 5 -10 7 -1 12 13 6 -1 47 -24 72 -7 7
-13 18 -13 24 0 6 -9 8 -19 5 -16 -4 -18 0 -15 19 5 27 -27 66 -61 78 -19 6
-19 5 1 -11 22 -18 39 -53 26 -53 -8 1 -52 68 -52 80 0 5 -8 11 -18 14 -10 3
-26 19 -35 36 -10 16 -22 30 -26 30 -5 0 -11 9 -14 21 -3 12 -10 18 -16 14 -6
-3 -11 1 -11 9 0 8 -9 20 -19 26 -11 5 -22 19 -26 29 -6 19 -35 38 -35 22z
m410 -481 c0 -5 -4 -10 -10 -10 -5 0 -10 5 -10 10 0 6 5 10 10 10 6 0 10 -4
10 -10z m182 -87 c10 -9 18 -22 18 -29 0 -7 8 -18 18 -23 13 -8 14 -10 2 -11
-8 0 -21 9 -28 20 -7 11 -19 20 -28 20 -13 0 -14 3 -5 14 9 11 9 15 -1 19 -7
3 -9 6 -4 6 5 1 18 -6 28 -16z m-42 -45 c0 -6 -6 -5 -15 2 -8 7 -15 14 -15 16
0 2 7 1 15 -2 8 -4 15 -11 15 -16z m101 -41 c-1 -4 -1 -14 -1 -22 0 -12 -3
-12 -18 3 -12 11 -14 20 -8 24 13 9 28 6 27 -5z m-24 -39 c-3 -8 -6 -5 -6 6
-1 11 2 17 5 13 3 -3 4 -12 1 -19z m75 -44 c6 -19 16 -34 20 -34 4 0 8 -4 8
-10 0 -5 -7 -7 -15 -4 -8 4 -15 13 -15 20 0 8 -9 24 -20 36 -11 12 -20 28 -20
36 0 24 28 -5 42 -44z m-92 26 c7 -13 7 -20 1 -20 -6 0 -15 9 -21 20 -7 13 -7
20 -1 20 6 0 15 -9 21 -20z m30 -45 c0 -8 -4 -15 -10 -15 -5 0 -10 7 -10 15 0
8 5 15 10 15 6 0 10 -7 10 -15z m34 -84 c-6 -6 -24 19 -24 34 1 6 7 1 15 -9 8
-11 12 -22 9 -25z m41 -51 c3 -5 1 -10 -4 -10 -6 0 -11 5 -11 10 0 6 2 10 4
10 3 0 8 -4 11 -10z"/>
<path d="M5700 12155 c0 -18 19 -40 26 -32 4 4 0 15 -9 24 -9 10 -17 13 -17 8z"/>
<path d="M5742 12108 c2 -6 10 -14 16 -16 7 -2 10 2 6 12 -7 18 -28 22 -22 4z"/>
<path d="M6025 12110 c3 -5 11 -10 16 -10 6 0 7 5 4 10 -3 6 -11 10 -16 10 -6
0 -7 -4 -4 -10z"/>
<path d="M6126 12007 c19 -27 44 -43 44 -29 0 5 -14 19 -32 32 l-31 23 19 -26z"/>
<path d="M5630 11990 c0 -6 7 -10 15 -10 8 0 15 2 15 4 0 2 -7 6 -15 10 -8 3
-15 1 -15 -4z"/>
<path d="M5675 11979 c-5 -8 -4 -10 3 -5 7 4 12 2 12 -4 0 -21 73 -120 84
-113 6 3 8 3 4 -1 -14 -16 103 -144 452 -494 167 -168 257 -253 380 -359 153
-132 188 -147 61 -25 -70 66 -81 82 -77 103 5 20 -2 30 -43 62 -37 30 -247
225 -294 274 -77 80 -207 212 -257 260 -36 34 -101 99 -146 145 -138 142 -171
171 -179 157z m620 -629 c3 -6 -1 -7 -9 -4 -18 7 -21 14 -7 14 6 0 13 -4 16
-10z"/>
<path d="M6180 11954 c0 -7 27 -34 35 -34 3 0 1 9 -5 20 -10 18 -30 28 -30 14z"/>
<path d="M6260 11865 c25 -25 46 -41 48 -35 3 7 -6 19 -19 28 -12 9 -31 24
-41 34 -10 10 -21 18 -25 18 -4 0 13 -20 37 -45z"/>
<path d="M5950 11881 c0 -5 7 -11 15 -15 8 -3 15 -1 15 3 0 5 -7 11 -15 15 -8
3 -15 1 -15 -3z"/>
<path d="M6320 11813 c0 -14 19 -38 25 -32 8 8 -5 39 -16 39 -5 0 -9 -3 -9 -7z"/>
<path d="M6407 11725 c12 -16 51 -59 88 -94 51 -48 64 -65 54 -72 -8 -5 -9 -9
-3 -9 7 0 14 -9 17 -21 3 -11 14 -23 24 -25 10 -3 29 -23 43 -45 13 -21 52
-64 86 -94 35 -30 66 -64 69 -75 6 -20 45 -29 45 -10 0 6 -4 10 -10 10 -5 0
-10 9 -10 19 0 11 -4 22 -10 26 -5 3 -7 12 -4 20 3 7 -4 18 -15 25 -12 6 -21
8 -21 4 0 -10 -40 35 -82 92 -42 57 -146 157 -286 274 -3 3 4 -8 15 -25z"/>
<path d="M7825 11740 c-3 -5 1 -10 10 -10 9 0 13 5 10 10 -3 6 -8 10 -10 10
-2 0 -7 -4 -10 -10z"/>
<path d="M8138 11719 c-2 -13 6 -43 18 -66 13 -22 20 -44 17 -47 -4 -3 3 -6
15 -6 11 0 24 4 27 10 3 5 0 7 -9 4 -12 -5 -14 1 -10 28 5 27 0 40 -24 68 -30
34 -30 34 -34 9z m32 -36 c0 -13 -3 -13 -15 -3 -8 7 -12 16 -9 21 8 13 24 1
24 -18z"/>
<path d="M6653 11677 c2 -7 17 -15 33 -18 16 -4 24 -7 17 -8 -20 -2 -3 -31 18
-31 38 0 11 39 -39 57 -26 9 -32 9 -29 0z"/>
<path d="M6768 11584 c-8 -12 150 -177 162 -169 6 3 10 1 10 -5 0 -12 80 -100
91 -100 3 0 6 7 6 15 0 8 -4 15 -9 15 -4 0 -8 5 -8 11 0 17 -117 129 -135 129
-8 0 -15 6 -15 14 0 7 -9 16 -20 19 -11 3 -19 11 -18 18 2 7 -4 14 -12 14 -8
1 -14 6 -12 13 1 7 -4 12 -12 12 -8 0 -16 5 -18 12 -3 7 -7 8 -10 2z"/>
<path d="M8216 11558 c3 -13 15 -35 25 -50 11 -14 19 -30 19 -36 0 -5 9 -19
20 -32 16 -19 23 -21 33 -11 9 9 9 14 -2 20 -7 5 -11 13 -7 19 3 5 -1 12 -9
16 -8 3 -15 12 -15 20 0 7 -9 16 -20 19 -11 3 -20 9 -19 14 3 13 -12 43 -23
43 -5 0 -6 -10 -2 -22z"/>
<path d="M6286 11536 c3 -8 12 -17 20 -20 12 -4 12 -2 4 14 -12 23 -32 27 -24
6z"/>
<path d="M6380 11452 c0 -9 25 -33 48 -46 25 -14 11 11 -18 32 -16 13 -30 19
-30 14z"/>
<path d="M8321 11420 c-14 -8 -7 -30 9 -30 11 0 21 28 12 34 -5 3 -14 1 -21
-4z"/>
<path d="M8340 11370 c0 -5 4 -10 9 -10 6 0 13 5 16 10 3 6 -1 10 -9 10 -9 0
-16 -4 -16 -10z"/>
<path d="M7100 11346 c0 -9 5 -16 10 -16 6 0 10 4 10 9 0 6 -4 13 -10 16 -5 3
-10 -1 -10 -9z"/>
<path d="M8380 11186 c0 -2 7 -9 15 -16 13 -11 14 -10 9 4 -5 14 -24 23 -24
12z"/>
<path d="M6230 11131 c0 -15 149 -156 335 -317 50 -43 110 -96 135 -118 25
-23 63 -54 84 -71 20 -16 61 -50 91 -75 125 -105 144 -120 152 -120 5 0 16
-13 25 -28 18 -30 64 -60 74 -49 10 10 -11 31 -61 63 -25 15 -45 34 -45 41 0
7 -5 13 -12 13 -6 0 -23 13 -37 29 -14 16 -56 53 -93 83 -77 63 -179 152 -252
221 -28 26 -54 47 -58 47 -3 0 -10 9 -13 20 -3 11 -12 20 -18 20 -7 0 -17 10
-22 23 -6 12 -20 23 -32 25 -13 2 -23 10 -23 18 0 8 -4 13 -8 12 -4 -2 -22 12
-40 30 -18 18 -32 30 -32 26 0 -12 -40 28 -40 40 -1 12 -110 79 -110 67z"/>
<path d="M8260 11114 c0 -16 44 -83 52 -78 4 3 8 1 8 -4 0 -5 7 -9 15 -9 24 0
12 31 -12 33 -28 2 -32 5 -39 27 -5 12 -7 25 -6 30 1 4 -2 7 -8 7 -5 0 -10 -3
-10 -6z"/>
<path d="M6655 11080 c3 -5 8 -10 11 -10 2 0 4 5 4 10 0 6 -5 10 -11 10 -5 0
-7 -4 -4 -10z"/>
<path d="M8380 11055 c0 -17 2 -18 24 -9 18 7 12 24 -10 24 -8 0 -14 -7 -14
-15z"/>
<path d="M6890 10891 c0 -9 33 -41 43 -41 4 0 2 9 -5 20 -13 21 -38 35 -38 21z"/>
<path d="M6783 10854 c12 -14 31 -31 42 -36 20 -11 20 -11 0 13 -25 30 -47 49
-57 49 -4 0 2 -12 15 -26z"/>
<path d="M6500 10710 c0 -11 4 -20 9 -20 5 0 7 9 4 20 -3 11 -7 20 -9 20 -2 0
-4 -9 -4 -20z"/>
<path d="M6534 10678 c3 -7 9 -21 12 -30 7 -20 34 -32 34 -15 -1 14 -35 57
-45 57 -4 0 -4 -6 -1 -12z"/>
<path d="M7263 10633 c-15 -6 -17 -33 -3 -33 5 0 40 -30 77 -68 110 -109 203
-193 203 -182 0 6 -10 20 -22 32 -13 13 -56 61 -97 108 -72 83 -137 151 -143
149 -2 0 -9 -3 -15 -6z"/>
<path d="M6578 10608 c-17 -20 -16 -22 5 -33 12 -6 42 -30 67 -53 25 -23 63
-54 85 -70 22 -15 75 -55 118 -89 44 -35 82 -63 85 -63 4 0 21 -13 38 -28 18
-15 68 -54 113 -87 46 -33 100 -75 123 -92 37 -31 58 -40 58 -27 0 7 -13 19
-85 79 -33 28 -64 56 -68 63 -4 6 -12 12 -17 12 -17 0 -59 43 -53 53 4 6 0 8
-10 4 -10 -4 -17 -1 -17 5 0 7 -30 41 -67 78 -63 60 -85 77 -121 96 -8 4 -25
18 -38 31 -14 14 -30 23 -36 21 -7 -3 -22 9 -33 26 -18 26 -109 96 -125 96 -3
0 -13 -10 -22 -22z"/>
<path d="M8230 10601 c0 -5 5 -13 10 -16 6 -3 10 -2 10 4 0 5 -4 13 -10 16 -5
3 -10 2 -10 -4z"/>
<path d="M7930 10592 c0 -4 14 -19 30 -34 20 -17 26 -28 18 -31 -9 -4 -8 -6 3
-6 18 -1 59 -42 59 -59 0 -7 -8 -12 -17 -12 -14 0 -15 -2 -4 -9 20 -13 49 -2
57 22 5 15 -1 26 -21 41 -15 12 -42 35 -61 52 -18 17 -36 29 -39 26 -3 -3 -5
0 -5 6 0 7 -4 12 -10 12 -5 0 -10 -3 -10 -8z"/>
<path d="M10172 10560 c0 -14 2 -19 5 -12 2 6 2 18 0 25 -3 6 -5 1 -5 -13z"/>
<path d="M10128 10525 c-7 -38 -1 -151 13 -228 11 -65 8 -77 -16 -53 -9 9 -25
16 -36 16 -22 0 -26 25 -4 34 8 3 15 12 15 21 0 24 -37 92 -54 98 -8 3 -17 20
-21 38 -4 18 -15 40 -23 48 -14 14 -15 14 -10 1 3 -8 -2 -30 -12 -48 l-18 -32
-15 22 c-18 27 -18 26 -18 -80 1 -61 68 -359 91 -402 5 -10 10 -27 9 -37 0
-10 -10 8 -22 39 -12 32 -30 66 -39 77 -9 11 -18 35 -20 53 -2 18 -7 32 -13
31 -9 -3 -16 -38 -17 -92 0 -38 -18 -3 -18 37 0 17 -3 32 -7 32 -13 0 -2 -301
13 -374 15 -71 25 -266 14 -266 -19 0 -32 54 -32 130 0 41 -4 95 -9 120 -6 25
-14 72 -19 105 -8 56 -34 179 -46 218 -3 9 -12 17 -20 17 -8 0 -12 5 -9 10 3
6 2 10 -4 10 -5 0 -12 -9 -16 -19 -7 -23 14 -61 32 -61 7 0 13 -5 13 -11 0 -5
-4 -8 -9 -5 -5 3 -11 -4 -14 -15 -4 -15 0 -23 14 -26 20 -6 27 -23 8 -23 -7 0
-9 -25 -5 -77 4 -50 3 -69 -3 -53 -19 53 -41 133 -41 146 0 8 -4 14 -9 14 -5
0 -7 9 -4 21 10 38 -47 69 -69 36 -7 -11 -29 37 -50 105 -6 22 -19 43 -27 46
-9 3 -19 10 -24 16 -4 6 -6 2 -4 -9 6 -35 29 -110 37 -120 4 -5 10 -21 13 -35
3 -14 19 -63 37 -110 41 -113 102 -321 96 -327 -5 -5 -61 151 -71 197 -13 59
-53 140 -69 140 -9 0 -16 8 -16 17 0 9 -3 14 -6 10 -6 -5 12 -69 38 -136 5
-13 7 -25 5 -28 -5 -5 -47 64 -47 77 0 5 -8 15 -19 22 -10 7 -19 17 -19 21 0
5 -4 12 -8 15 -3 4 -5 -5 -2 -20 4 -24 3 -26 -13 -17 -11 5 -19 8 -19 5 0 -8
51 -130 61 -146 5 -8 14 -25 19 -38 6 -13 17 -30 25 -38 8 -9 15 -25 15 -37 0
-15 -8 -7 -26 28 -36 68 -77 125 -112 158 -32 29 -53 37 -32 12 7 -9 10 -18 7
-22 -7 -7 -31 21 -82 98 -38 56 -42 64 -22 53 7 -4 9 -3 4 2 -5 5 -13 10 -18
10 -5 1 -14 2 -20 3 -5 0 -8 5 -5 9 3 4 -13 25 -35 46 -25 25 -39 33 -39 23 0
-8 7 -18 16 -21 9 -3 14 -12 11 -20 -3 -8 3 -22 14 -32 10 -9 19 -22 19 -29 0
-6 8 -20 18 -31 9 -10 17 -25 18 -31 2 -29 4 -34 13 -28 5 3 21 0 36 -7 26
-12 26 -12 5 -23 l-21 -11 26 -38 c14 -21 24 -40 23 -42 -4 -3 -33 20 -88 69
-49 42 -65 53 -55 38 5 -9 -2 -8 -24 5 -17 10 -31 23 -31 29 0 18 -54 43 -81
38 -19 -3 -34 3 -54 21 -16 15 -25 29 -21 33 3 4 16 -4 27 -16 12 -12 24 -19
28 -16 3 4 -7 18 -24 31 -16 14 -36 30 -44 36 -11 9 -12 7 -6 -11 6 -20 5 -21
-22 -10 -71 29 -125 58 -178 95 -38 26 -112 64 -126 64 -6 0 -7 -6 -3 -12 5
-9 3 -9 -9 1 -9 7 -14 18 -11 23 4 6 -4 5 -16 -2 -20 -11 -22 -10 -17 4 6 14
3 16 -14 11 -14 -5 -25 -2 -30 6 -7 11 -9 10 -9 -5 0 -10 8 -25 18 -32 16 -13
16 -14 -3 -7 -11 3 -32 14 -46 24 -14 10 -30 15 -34 11 -5 -4 -5 -1 -1 6 9 15
36 16 36 1 0 -5 5 -7 11 -3 8 4 2 12 -15 21 -21 11 -31 12 -41 3 -11 -9 -18
-8 -30 4 -9 9 -13 16 -8 16 5 0 14 -5 21 -12 21 -21 14 8 -9 33 -11 13 -17 17
-13 9 4 -8 -14 8 -39 35 -53 57 -57 61 -111 110 -22 20 -45 34 -52 31 -7 -3
-16 4 -19 15 -5 16 -9 18 -21 8 -8 -7 -12 -20 -9 -30 5 -13 1 -19 -10 -19 -9
0 -13 5 -10 10 3 6 1 10 -4 10 -15 0 -14 -13 2 -29 10 -11 9 -13 -5 -8 -21 7
-23 1 -5 -17 6 -7 27 -11 45 -10 17 1 29 -2 26 -7 -3 -5 -1 -9 4 -9 5 0 12 -9
15 -20 4 -17 2 -20 -15 -14 -17 5 -20 3 -15 -11 4 -9 7 -21 7 -26 0 -5 9 -9
21 -9 11 0 18 -4 15 -9 -9 -14 18 -42 42 -44 22 -1 22 -2 5 -15 -15 -11 -16
-14 -3 -22 8 -5 19 -10 24 -10 4 0 6 -7 3 -15 -4 -8 -1 -17 4 -21 6 -3 9 -14
6 -24 -2 -10 4 -22 15 -29 11 -7 17 -18 15 -25 -3 -8 1 -23 10 -35 10 -15 13
-33 9 -57 -6 -29 -11 -34 -36 -34 -20 0 -28 -4 -24 -13 3 -8 -2 -14 -11 -14
-8 0 -15 7 -16 16 0 10 -4 7 -9 -7 -6 -13 -17 -22 -26 -20 -11 2 -18 -4 -19
-19 -1 -13 -10 -31 -19 -42 -10 -11 -15 -25 -11 -31 5 -8 1 -11 -11 -8 -12 2
-23 -5 -31 -20 -10 -19 -9 -26 7 -42 11 -11 20 -26 20 -33 0 -8 11 -20 25 -27
14 -7 25 -19 25 -27 0 -7 9 -21 19 -30 15 -13 18 -21 10 -35 -10 -18 -14 -16
-54 21 l-44 41 -34 -20 c-29 -17 -36 -28 -41 -68 -4 -26 -7 -55 -7 -64 0 -10
-7 -18 -15 -18 -8 0 -17 -13 -21 -30 -3 -17 -9 -33 -14 -36 -5 -3 -1 -17 8
-31 11 -17 16 -43 15 -79 -1 -29 3 -56 8 -59 6 -4 8 -10 5 -15 -5 -8 7 -66 23
-110 5 -14 7 -23 11 -45 1 -5 6 -3 11 5 6 10 10 11 10 3 0 -7 5 -13 11 -13 5
0 7 5 4 10 -8 13 -5 12 33 -1 22 -7 29 -15 25 -26 -5 -12 -3 -14 7 -8 8 5 11
3 9 -4 -3 -7 -22 -22 -44 -34 -22 -12 -42 -25 -43 -30 -2 -4 -7 -5 -12 -2 -10
6 -70 -64 -70 -82 0 -7 -14 -28 -31 -45 -17 -18 -38 -45 -47 -60 -9 -16 -23
-28 -30 -28 -12 0 -12 -3 -2 -15 10 -12 10 -19 2 -27 -19 -19 -14 -28 17 -28
16 0 31 -5 33 -11 2 -5 12 -11 23 -13 21 -3 35 -36 15 -36 -10 0 -9 -4 0 -15
7 -8 9 -15 4 -15 -5 0 -2 -5 6 -10 12 -8 13 -12 2 -19 -11 -6 -10 -10 3 -15 9
-3 22 -3 27 1 7 3 8 1 4 -5 -4 -8 0 -12 11 -12 15 0 16 -2 3 -10 -8 -5 -24 -7
-36 -4 -14 4 -23 0 -28 -12 -6 -15 -9 -15 -24 -3 -12 10 -31 13 -62 9 l-45 -6
27 -13 c24 -12 62 -57 61 -71 0 -3 7 -10 16 -17 14 -10 14 -14 -8 -37 -13 -14
-27 -23 -32 -21 -4 3 -13 -1 -21 -8 -23 -23 -131 -85 -186 -106 -63 -25 -109
-27 -140 -5 -34 24 -115 29 -165 11 -23 -9 -58 -18 -77 -22 -69 -12 -126 -28
-166 -46 -22 -11 -48 -19 -58 -19 -9 0 -72 -16 -139 -36 -67 -20 -142 -40
-167 -44 -38 -6 -174 -70 -190 -89 -3 -4 -25 -15 -50 -26 -68 -29 -96 -53
-113 -97 -14 -33 -14 -38 -2 -28 8 7 15 20 15 30 0 21 61 52 146 74 32 8 88
27 123 41 36 14 74 25 86 25 12 0 25 4 31 8 5 5 34 14 64 21 30 8 60 17 65 21
13 10 142 53 225 75 36 9 72 19 80 22 8 4 21 7 27 9 16 3 103 34 123 43 8 4
43 8 77 10 54 2 63 0 75 -18 15 -24 53 -27 108 -10 19 6 46 12 60 14 14 2 42
8 63 13 32 9 37 8 37 -8 0 -11 -18 -26 -50 -41 -27 -13 -46 -27 -41 -32 14
-14 109 33 136 67 36 44 57 66 66 66 19 0 57 -56 63 -91 6 -35 24 -52 61 -54
5 0 12 -11 16 -25 4 -14 7 -19 8 -11 1 11 4 11 16 1 12 -10 15 -10 15 3 0 11
13 18 38 23 49 9 92 31 92 48 0 13 29 26 61 26 11 0 21 -15 30 -45 7 -25 18
-45 24 -45 11 1 53 30 42 30 -3 0 7 14 23 32 27 29 31 30 47 16 13 -12 29 -14
62 -9 38 5 46 10 52 33 4 17 3 28 -4 31 -7 2 -1 15 16 32 27 28 34 45 19 45
-15 0 -31 46 -22 61 11 17 15 13 50 -57 29 -60 36 -66 51 -42 7 10 11 10 17 1
4 -7 21 -14 36 -15 16 -2 36 -13 47 -27 20 -25 25 -46 9 -36 -6 3 -7 -1 -4
-10 4 -8 11 -15 18 -14 28 3 35 -4 51 -52 13 -37 16 -68 11 -117 -9 -106 -17
-152 -27 -152 -5 0 -9 -5 -9 -11 0 -6 -7 -17 -15 -25 -10 -11 -12 -21 -5 -39
6 -15 6 -25 0 -25 -5 0 -5 -13 1 -30 11 -31 -3 -215 -22 -275 -5 -16 -11 -48
-14 -70 -4 -34 -58 -299 -69 -345 -7 -24 -66 -171 -91 -225 -40 -83 -75 -186
-68 -198 3 -5 1 -7 -5 -3 -6 3 -15 -9 -23 -31 -6 -21 -20 -46 -31 -56 -10 -10
-16 -22 -13 -28 4 -5 2 -9 -4 -9 -8 0 -61 -92 -61 -106 0 -3 10 -2 21 1 l21 7
-19 -38 c-43 -84 -55 -117 -43 -124 9 -6 8 -16 -3 -41 -9 -19 -18 -52 -21 -74
-3 -22 -10 -55 -15 -72 -5 -18 -6 -33 -1 -33 5 0 7 -29 6 -65 -4 -62 10 -89
21 -45 9 36 20 21 18 -25 -2 -48 7 -71 23 -61 6 4 10 -1 10 -11 -1 -32 7 -48
27 -54 18 -5 16 -8 -16 -27 -35 -21 -75 -80 -85 -124 -3 -13 -6 -27 -7 -33 -2
-5 -6 -16 -10 -22 -5 -7 -6 -13 -2 -13 3 0 -1 -13 -10 -30 -8 -16 -15 -33 -15
-37 1 -5 -1 -28 -5 -53 -14 -110 -25 -260 -29 -407 -3 -79 0 -105 11 -114 8
-7 12 -18 9 -25 -3 -7 -1 -16 4 -19 5 -3 5 -18 0 -35 -9 -31 5 -54 16 -26 3 9
11 16 16 16 6 0 8 -7 4 -15 -3 -8 -2 -14 2 -12 13 4 14 -8 1 -35 -12 -28 -29
-38 -29 -18 0 6 -6 5 -14 -2 -12 -12 -12 -49 0 -70 3 -4 -1 -8 -8 -9 -7 0 -3
-4 10 -9 25 -10 27 -18 11 -40 -9 -13 -10 -12 -5 3 3 11 0 17 -9 17 -12 0 -15
-16 -17 -67 -2 -96 3 -166 13 -183 5 -10 7 -3 4 19 -4 33 -3 33 28 27 23 -4
28 -3 17 4 -13 9 -13 11 -1 19 22 14 44 2 30 -15 -9 -11 -8 -18 2 -31 12 -14
12 -16 0 -8 -11 6 -13 4 -7 -11 19 -46 27 -87 18 -93 -15 -10 -21 -50 -9 -59
8 -5 11 -35 9 -91 -2 -55 -7 -80 -13 -70 -7 12 -9 11 -9 -2 0 -9 7 -22 15 -29
10 -9 12 -16 5 -25 -6 -7 -5 -18 4 -31 7 -10 13 -34 14 -52 0 -18 6 -40 13
-49 7 -8 13 -43 14 -77 1 -34 4 -67 8 -73 4 -6 4 -18 1 -27 -3 -9 -1 -16 4
-16 12 0 13 -10 13 -88 0 -31 4 -52 11 -52 7 0 7 -4 -1 -13 -8 -10 -7 -17 2
-26 10 -11 7 -12 -13 -6 -23 7 -23 7 -7 -10 12 -12 15 -21 8 -29 -7 -8 -7 -25
-2 -47 5 -19 12 -46 15 -61 4 -16 13 -28 20 -28 20 0 26 33 9 49 -9 8 -12 22
-9 35 3 11 6 35 6 51 0 22 3 26 9 15 6 -8 7 -18 4 -24 -3 -5 -1 -6 5 -2 8 5
12 -1 12 -14 0 -12 -4 -19 -9 -15 -5 3 -12 1 -15 -4 -9 -15 5 -41 21 -41 13 0
14 9 10 47 -13 107 -28 187 -38 200 -6 7 -9 20 -5 28 3 8 0 15 -7 15 -8 0 -6
4 3 10 9 6 11 10 3 10 -7 0 -10 7 -7 15 4 8 1 15 -6 15 -6 0 -9 4 -5 9 3 6 7
51 9 102 5 97 26 152 26 66 0 -26 5 -47 10 -47 6 0 10 9 10 20 0 12 9 30 20
42 18 20 26 54 22 101 -3 28 7 20 17 -15 7 -25 9 -27 10 -11 1 12 6 25 11 28
6 4 8 10 5 14 -2 5 4 16 14 25 24 22 47 11 89 -41 47 -60 81 -131 111 -233 15
-51 33 -96 40 -98 6 -2 9 3 5 12 -3 9 -2 16 4 16 6 0 12 -6 15 -12 2 -7 3 20
2 60 -1 39 3 72 7 72 31 0 59 -171 59 -353 0 -67 0 -135 1 -152 1 -33 -3 -53
-15 -70 -41 -57 -42 -58 -67 -45 -13 7 -54 41 -90 76 -66 64 -101 84 -80 44
19 -36 1 -21 -26 21 -19 31 -28 38 -34 28 -5 -7 -5 -16 0 -19 5 -3 12 -19 16
-35 11 -39 11 -42 13 -61 0 -8 5 -13 10 -10 10 7 24 -22 16 -34 -3 -4 2 -13
10 -20 8 -7 15 -18 15 -24 0 -18 57 -76 74 -76 9 0 16 -6 16 -14 0 -19 30 -44
30 -25 1 9 4 8 11 -4 6 -9 14 -15 19 -12 6 3 19 -9 30 -27 22 -36 39 -42 56
-19 10 12 13 11 24 -9 l13 -24 10 24 c6 16 11 20 14 12 4 -9 9 -10 18 -2 9 8
14 6 19 -5 3 -8 12 -15 21 -15 18 0 20 -16 3 -23 -9 -4 -10 -6 -1 -6 18 -1 43
28 36 44 -8 24 28 7 54 -24 20 -23 23 -24 23 -7 0 18 1 18 18 3 51 -50 162
-123 162 -107 0 5 7 7 15 4 8 -4 15 -1 15 6 0 6 5 8 10 5 6 -3 14 4 19 17 10
23 10 22 10 -4 1 -16 7 -28 14 -28 28 0 87 22 87 32 0 6 2 9 5 6 3 -3 -9 -36
-26 -73 -43 -95 -52 -117 -54 -138 -2 -23 12 -9 33 34 10 21 24 33 35 33 9 -1
17 3 17 8 0 6 19 33 43 61 152 183 239 247 423 312 63 22 84 25 166 21 55 -3
113 -12 139 -22 55 -21 159 -84 159 -95 0 -5 6 -9 13 -9 8 0 19 -11 25 -25 7
-14 19 -28 27 -31 8 -4 15 -10 15 -15 0 -5 18 -27 40 -49 22 -22 38 -40 36
-40 -3 0 11 -28 30 -62 19 -35 40 -75 46 -90 7 -16 19 -28 26 -28 8 0 12 -6 9
-14 -3 -8 1 -17 10 -20 21 -8 31 3 14 14 -8 4 -12 17 -8 29 3 14 1 19 -6 14
-6 -4 -8 0 -4 9 3 9 -18 62 -48 122 -54 107 -58 131 -11 76 14 -17 28 -30 32
-29 4 0 11 -5 15 -13 7 -10 9 -10 9 0 0 7 5 10 10 7 6 -4 10 6 10 22 l1 28 14
-32 c11 -25 19 -31 39 -29 14 2 27 -3 30 -10 10 -26 26 -14 24 18 -2 18 2 33
10 36 9 3 11 -3 6 -22 -5 -20 -2 -26 10 -26 9 0 16 5 16 10 0 6 7 10 15 10 7
0 19 8 24 18 6 9 11 13 11 7 0 -5 5 -3 10 5 7 12 12 12 22 2 17 -17 55 -15 62
4 4 10 12 14 22 10 11 -4 15 -2 11 7 -3 8 -1 20 4 28 5 8 9 9 9 3 0 -15 28
-13 34 3 3 7 10 13 15 13 7 0 7 -9 1 -25 -7 -19 -6 -23 5 -19 8 3 16 13 19 22
3 13 4 12 4 -3 -1 -11 2 -28 7 -38 7 -17 8 -17 22 2 7 11 19 18 26 15 7 -2 19
6 26 19 8 16 21 23 39 22 17 -1 35 8 49 24 l22 26 -6 -24 c-6 -24 -6 -24 27 5
55 47 77 73 90 105 7 16 18 28 24 26 6 -3 19 17 28 44 17 52 9 65 -17 25 -20
-31 -51 -45 -35 -17 9 18 7 18 -54 -2 -35 -11 -70 -18 -77 -15 -42 16 -91 227
-56 241 8 4 9 8 1 14 -12 8 -26 306 -17 343 3 11 11 20 18 20 7 0 15 7 19 15
3 8 1 15 -4 15 -5 0 -3 12 5 27 7 16 19 53 26 83 16 74 64 169 103 202 42 36
90 37 123 2 13 -14 22 -28 20 -31 -3 -2 9 -19 25 -37 20 -23 36 -32 49 -29 10
3 16 10 13 17 -3 6 2 2 10 -8 9 -11 16 -28 16 -37 0 -10 5 -21 10 -24 6 -3 10
3 10 14 0 11 -4 23 -10 26 -5 3 -10 13 -10 22 0 11 10 6 34 -18 19 -18 33 -36
30 -40 -2 -4 0 -10 6 -14 6 -3 10 4 10 16 0 12 2 20 5 17 10 -10 12 -118 2
-118 -6 0 -6 -5 0 -12 11 -15 8 -221 -3 -246 -4 -10 -9 -44 -11 -77 -2 -33 -7
-86 -11 -117 -6 -45 -5 -58 5 -58 7 0 13 -4 13 -10 0 -5 8 -10 18 -10 13 0 14
2 3 9 -9 6 -10 11 -2 15 18 12 30 -3 29 -36 -1 -18 4 -34 10 -36 6 -2 9 -11 6
-20 -5 -18 9 10 22 43 8 22 11 35 15 82 2 18 6 33 9 33 3 0 6 47 8 104 3 75 0
106 -9 112 -9 5 -10 2 -6 -10 9 -23 -10 -96 -25 -96 -7 0 -8 16 -4 48 4 26 8
56 8 68 0 19 28 31 28 12 0 -4 5 -8 10 -8 15 0 12 16 -5 33 -11 12 -12 16 -3
19 12 4 18 83 18 218 0 88 1 95 18 127 14 25 16 73 3 73 -4 0 -7 45 -5 100 3
55 1 100 -4 100 -4 0 -9 12 -10 28 -1 15 -7 28 -12 30 -6 2 -7 15 -4 28 4 15
2 24 -6 24 -6 0 -8 4 -5 10 3 5 -1 20 -9 32 -10 15 -12 25 -6 33 7 9 5 16 -5
25 -8 7 -15 17 -15 23 0 5 -7 15 -16 21 -9 7 -12 18 -9 28 7 18 42 21 63 5 6
-5 12 -6 12 -1 0 4 10 -2 23 -13 29 -27 54 -35 54 -17 0 7 -3 11 -7 9 -4 -2
-12 7 -18 20 -6 13 -23 27 -37 31 -21 5 -25 12 -25 43 0 33 4 38 36 50 19 7
38 10 41 7 4 -3 -1 -6 -10 -6 -11 0 -14 -5 -10 -15 5 -14 7 -14 18 2 7 10 16
32 19 49 6 25 11 31 27 27 16 -5 17 -8 7 -21 -12 -14 -11 -14 9 -1 19 11 21
19 16 49 -3 19 -5 51 -4 70 1 27 -1 32 -10 20 -8 -12 -9 -8 -5 17 3 18 1 35
-4 38 -6 4 -7 11 -4 17 4 6 10 5 15 -3 6 -10 9 -6 9 14 0 15 5 27 10 27 6 0
10 7 10 15 0 9 6 12 15 9 17 -7 19 4 6 25 -6 10 -4 25 5 43 8 16 10 28 4 28
-5 0 -10 12 -10 26 0 14 -5 34 -11 46 -12 23 -2 40 11 18 21 -35 29 -44 34
-40 5 6 -22 128 -32 145 -3 5 -7 15 -8 22 -4 22 -38 93 -45 93 -4 0 -15 23
-24 51 -10 28 -25 59 -34 69 -9 10 -23 27 -31 38 -9 11 -31 22 -54 25 -21 3
-43 11 -50 17 -9 10 -3 11 24 6 19 -4 45 -9 58 -12 25 -5 28 6 10 37 -10 17
-10 23 0 26 6 3 12 9 12 14 0 6 -6 7 -12 4 -7 -4 -5 0 6 9 17 14 17 17 2 58
-8 24 -17 68 -20 98 -2 30 -6 62 -9 70 -2 8 -2 12 0 8 13 -23 23 -1 23 47 0
30 5 55 10 55 6 0 10 -6 10 -12 0 -9 4 -8 10 2 5 8 10 29 10 47 0 35 17 53 31
32 6 -10 9 -4 9 17 0 56 -12 96 -31 101 -10 3 -21 14 -24 24 -4 10 -11 19 -17
19 -5 0 -7 7 -4 16 3 8 2 12 -4 9 -6 -3 -10 4 -10 16 0 12 -7 27 -15 33 -9 6
-17 21 -18 34 0 12 -5 22 -10 22 -4 0 -5 5 -2 10 3 6 2 10 -4 10 -5 0 -19 16
-31 34 -11 19 -27 33 -33 30 -9 -3 -17 16 -26 57 -7 34 -23 79 -37 101 -14 21
-22 43 -19 48 4 6 -1 10 -9 10 -9 0 -16 6 -16 13 0 15 -66 87 -80 87 -5 0 -7
7 -3 17 5 13 2 15 -15 11 -13 -4 -19 -2 -16 6 2 6 -10 17 -27 23 -27 11 -30
15 -19 28 11 14 7 19 -12 16 -5 0 -8 6 -8 14 0 8 5 15 11 15 14 0 4 55 -16 86
-9 14 -14 32 -11 39 3 8 1 17 -4 20 -6 4 -10 13 -10 21 0 9 -16 43 -36 77 -21
35 -31 63 -25 65 16 5 -16 62 -51 92 -25 22 -34 39 -37 73 -1 5 -7 5 -13 1
-10 -5 -10 -4 -1 6 9 10 4 26 -20 74 -17 33 -34 63 -37 66 -10 10 -44 75 -41
78 2 2 -10 25 -27 50 -17 26 -36 59 -43 74 -12 27 -24 32 -98 40 -19 2 -24 10
-26 35 -3 34 -40 113 -58 125 -7 4 -5 11 5 21 13 14 18 14 44 1 15 -8 36 -14
47 -12 18 3 17 4 -2 25 -12 12 -21 27 -21 33 0 6 -16 28 -36 49 -27 30 -45 40
-81 46 -29 4 -42 10 -34 15 10 6 10 12 2 29 -19 34 10 27 55 -14 38 -35 61
-40 31 -7 -10 10 -17 24 -17 30 0 7 -4 12 -9 12 -5 0 -11 10 -15 23 -6 25 -57
60 -78 52 -25 -9 -48 19 -40 49 l7 27 24 -25 c30 -32 64 -37 36 -6 -10 11 -25
20 -33 20 -8 0 -12 6 -9 14 5 13 -9 32 -47 64 -9 7 -18 12 -21 12 -3 0 -9 0
-14 0 -16 0 -77 60 -61 60 13 0 13 1 0 11 -11 8 -12 12 -3 16 13 5 -17 37 -87
95 -21 17 -29 31 -25 40 6 10 5 10 -4 2 -9 -8 -21 -3 -46 21 -19 17 -35 37
-35 44 0 6 -7 14 -15 17 -8 4 -12 10 -9 15 5 10 -64 78 -81 80 -47 4 -60 8
-71 24 -8 11 -14 25 -14 32 0 7 -4 13 -10 13 -5 0 -10 5 -10 12 0 6 -8 20 -17
31 -17 19 -17 20 -1 14 12 -4 15 -2 11 9 -3 7 0 14 6 14 6 0 11 -6 11 -12 0
-9 4 -8 10 2 7 11 4 20 -11 33 -19 16 -23 16 -33 2 -14 -20 -43 -11 -51 15 -4
11 -12 17 -21 13 -8 -3 -14 1 -14 10 0 8 -6 18 -12 20 -10 4 -10 6 0 6 27 2
11 36 -22 47 l-34 11 -8 -121 c-4 -69 -10 -112 -14 -101 -4 11 -5 46 -3 78 2
37 0 57 -7 57 -6 0 -9 4 -6 9 4 5 0 12 -6 14 -8 3 -5 6 5 6 17 1 19 22 5 78
-1 4 4 20 12 35 17 35 6 76 -22 80 -29 4 -34 25 -8 33 11 3 17 11 14 17 -4 6
-1 13 5 17 7 5 9 24 5 54 -6 40 -10 47 -25 42 -11 -4 -19 -2 -19 5 0 6 5 8 10
5 6 -3 10 0 10 9 0 8 5 16 11 18 8 3 8 26 0 90 -6 48 -14 122 -17 165 -3 43
-10 96 -15 119 -6 22 -9 47 -8 55 2 8 -1 37 -6 64 -10 58 -7 87 8 97 8 5 7 15
-3 35 -20 39 -24 51 -11 33 8 -11 10 22 7 120 -2 89 -7 135 -15 138 -6 2 -11
13 -11 23 0 13 4 18 12 13 8 -5 9 2 5 26 -4 18 -7 45 -7 61 0 34 -17 39 -23 7
-4 -20 -4 -19 -6 5 0 15 -5 27 -10 27 -5 0 -11 10 -13 23 -3 19 -4 18 -10 -8z
m-1353 -465 c3 -5 1 -10 -4 -10 -6 0 -11 5 -11 10 0 6 2 10 4 10 3 0 8 -4 11
-10z m1431 -11 c3 -5 -8 -9 -25 -9 -22 0 -29 4 -25 14 5 14 40 11 50 -5z
m-1446 -25 c0 -2 -7 -4 -15 -4 -8 0 -15 4 -15 10 0 5 7 7 15 4 8 -4 15 -8 15
-10z m99 -31 c9 -7 23 -10 31 -8 18 6 89 -49 78 -60 -4 -4 -17 0 -30 9 -12 9
-30 16 -40 16 -10 0 -18 5 -18 10 0 6 -8 10 -17 10 -24 1 -53 24 -53 42 0 24
13 30 24 11 5 -10 17 -23 25 -30z m948 31 c-3 -3 -12 -4 -19 -1 -8 3 -5 6 6 6
11 1 17 -2 13 -5z m-93 -66 c6 -26 14 -139 10 -135 -1 1 -11 29 -22 62 -12 33
-24 68 -27 78 -5 13 -2 17 14 17 13 0 22 -8 25 -22z m313 -90 c-3 -7 -5 -2 -5
12 0 14 2 19 5 13 2 -7 2 -19 0 -25z m-180 -24 c-9 -9 -28 6 -21 18 4 6 10 6
17 -1 6 -6 8 -13 4 -17z m183 -86 l-4 -63 -6 65 c-5 69 -1 107 9 77 3 -9 4
-44 1 -79z m-180 50 c0 -16 -3 -19 -11 -11 -6 6 -8 16 -5 22 11 17 16 13 16
-11z m-639 -60 c77 -48 107 -77 89 -88 -26 -16 -120 36 -105 59 3 5 1 12 -5
16 -5 3 -10 0 -10 -7 0 -7 -7 0 -15 16 -24 46 -23 46 46 4z m454 -38 c5 -17 4
-22 -3 -15 -5 6 -13 21 -17 35 -5 17 -4 22 3 15 5 -5 13 -21 17 -35z m184 -82
c7 -35 17 -75 22 -89 6 -15 9 -40 7 -55 -2 -24 -7 -16 -25 41 -24 76 -39 180
-24 171 4 -3 14 -34 20 -68z m186 43 c3 -5 1 -12 -5 -16 -5 -3 -10 1 -10 9 0
18 6 21 15 7z m-695 -31 c8 -5 12 -11 9 -14 -3 -3 -14 1 -25 9 -21 16 -8 20
16 5z m258 -35 c-3 -3 -9 2 -12 12 -6 14 -5 15 5 6 7 -7 10 -15 7 -18z m612
21 c0 -3 -4 -8 -10 -11 -5 -3 -10 -1 -10 4 0 6 5 11 10 11 6 0 10 -2 10 -4z
m-660 -55 c0 -11 -5 -10 -20 4 -11 10 -20 22 -20 27 0 4 9 3 20 -4 11 -7 20
-19 20 -27z m247 7 c-3 -8 -6 -5 -6 6 -1 11 2 17 5 13 3 -3 4 -12 1 -19z
m-133 -14 c3 -8 2 -12 -4 -9 -6 3 -10 10 -10 16 0 14 7 11 14 -7z m306 -89 c0
-19 -2 -35 -4 -35 -2 0 -6 16 -8 35 -2 19 0 35 4 35 4 0 8 -16 8 -35z m-83
-57 c-3 -7 -5 -2 -5 12 0 14 2 19 5 13 2 -7 2 -19 0 -25z m-1354 -77 c-9 -12
-25 20 -18 36 7 16 9 15 15 -7 4 -14 5 -27 3 -29z m32 29 c3 -5 1 -10 -4 -10
-6 0 -11 5 -11 10 0 6 2 10 4 10 3 0 8 -4 11 -10z m72 -25 c12 -4 13 -9 5 -17
-6 -6 -8 -17 -5 -25 3 -8 0 -19 -8 -24 -22 -14 -29 -11 -29 11 0 11 -4 20 -10
20 -11 0 -14 33 -4 43 3 3 12 4 20 1 8 -2 22 -6 31 -9z m-23 -137 c9 -34 7
-78 -3 -78 -25 0 -48 64 -31 85 17 21 27 19 34 -7z m-130 -65 c5 -16 3 -29 -4
-33 -9 -6 -9 -13 1 -31 17 -33 22 -82 7 -73 -7 5 -9 2 -6 -7 3 -8 0 -26 -8
-40 -7 -13 -13 -20 -14 -15 0 5 -7 3 -16 -5 -13 -10 -17 -10 -23 0 -12 19 -11
154 1 168 6 7 8 20 4 28 -3 9 0 15 9 15 8 0 15 5 15 10 0 22 28 8 34 -17z
m-162 -90 c-6 -2 -10 -9 -6 -14 3 -5 -2 -9 -10 -9 -9 0 -16 4 -16 9 0 10 18
19 35 19 6 0 4 -2 -3 -5z m376 -125 c16 -32 10 -81 -12 -111 -36 -48 -71 -21
-61 48 6 36 13 48 31 55 13 5 24 12 24 15 0 4 -5 3 -12 -1 -7 -4 -8 -3 -4 4
11 18 21 14 34 -10z m84 -90 c25 -25 43 -115 27 -134 -7 -8 -6 -13 1 -16 15
-5 24 -113 11 -135 -8 -14 -10 -15 -11 -3 0 13 -2 13 -9 1 -7 -10 -16 2 -36
45 -15 32 -34 71 -41 86 -8 14 -14 55 -14 90 0 87 26 112 72 66z m-112 -66 c0
-13 -12 -22 -22 -16 -10 6 -1 24 13 24 5 0 9 -4 9 -8z m23 -27 c-3 -9 -8 -14
-10 -11 -3 3 -2 9 2 15 9 16 15 13 8 -4z m-241 -45 c18 -31 43 -39 51 -17 3 6
6 0 6 -14 1 -15 8 -32 16 -39 8 -7 15 -22 15 -34 0 -12 7 -31 15 -42 8 -10 15
-32 15 -47 0 -16 5 -38 11 -50 12 -22 12 -22 -9 -3 -23 20 -21 22 -36 -28 -7
-23 -48 -45 -86 -48 -32 -3 -37 1 -53 35 -18 36 -18 38 2 80 19 41 20 76 1
122 -4 11 -12 32 -18 46 -11 28 -7 38 23 56 28 16 28 16 47 -17z m2183 0 l40
-19 -41 3 c-47 4 -67 13 -59 27 8 12 14 11 60 -11z m-2285 -42 c0 -4 -9 -6
-20 -5 -14 1 -20 8 -20 24 0 22 1 22 20 6 11 -10 20 -21 20 -25z m1923 -2 c4
-10 1 -13 -8 -9 -8 3 -12 9 -9 14 7 12 11 11 17 -5z m-3 -30 c0 -2 -7 -7 -16
-10 -8 -3 -12 -2 -9 4 6 10 25 14 25 6z m450 -79 c8 -3 -2 -6 -24 -6 -33 -1
-37 1 -26 14 8 9 17 12 24 6 6 -4 18 -11 26 -14z m-2505 -48 c11 -16 1 -19
-13 -3 -7 8 -8 14 -3 14 5 0 13 -5 16 -11z m-7 -46 c-4 -25 -20 -34 -35 -21
-7 5 -20 8 -28 4 -8 -3 -15 -1 -15 3 0 9 44 29 68 30 7 1 12 -7 10 -16z m627
-20 c-11 -3 -23 -10 -27 -17 -5 -7 -8 -5 -8 7 0 12 7 17 28 16 21 -1 22 -2 7
-6z m1915 -33 c0 -5 -8 -10 -17 -10 -15 0 -16 2 -3 10 19 12 20 12 20 0z m225
-110 c3 -5 2 -10 -4 -10 -5 0 -13 5 -16 10 -3 6 -2 10 4 10 5 0 13 -4 16 -10z
m335 -650 c0 -5 -7 -10 -15 -10 -8 0 -15 5 -15 10 0 6 7 10 15 10 8 0 15 -4
15 -10z m269 -414 c-3 -3 -15 -3 -27 1 -18 4 -20 8 -11 20 11 12 14 12 28 -1
8 -9 13 -18 10 -20z m175 -472 c5 -14 4 -15 -9 -4 -17 14 -19 20 -6 20 5 0 12
-7 15 -16z m-54 -100 c0 -8 -4 -12 -10 -9 -5 3 -10 10 -10 16 0 5 5 9 10 9 6
0 10 -7 10 -16z m-3070 -288 c0 -3 -4 -8 -10 -11 -5 -3 -10 -1 -10 4 0 6 5 11
10 11 6 0 10 -2 10 -4z m3270 -6 c0 -5 -4 -10 -10 -10 -5 0 -10 5 -10 10 0 6
5 10 10 10 6 0 10 -4 10 -10z m233 -177 c9 -31 15 -59 12 -61 -2 -3 -7 4 -11
14 -3 10 -11 30 -16 44 -16 35 -19 60 -9 60 4 0 15 -26 24 -57z m-46 -155 c-3
-8 -6 -5 -6 6 -1 11 2 17 5 13 3 -3 4 -12 1 -19z m-172 -368 c3 -5 1 -10 -4
-10 -6 0 -11 5 -11 10 0 6 2 10 4 10 3 0 8 -4 11 -10z m-1215 -230 c0 -5 -2
-10 -4 -10 -3 0 -8 5 -11 10 -3 6 -1 10 4 10 6 0 11 -4 11 -10z m40 -74 c0 -3
-4 -8 -10 -11 -5 -3 -10 -1 -10 4 0 6 5 11 10 11 6 0 10 -2 10 -4z m1485 -217
c9 -16 13 -34 10 -39 -3 -5 -1 -11 5 -15 6 -4 8 -11 5 -16 -12 -18 -30 -8 -51
29 -15 28 -18 42 -10 59 12 26 21 22 41 -18z m-242 -509 c7 -29 1 -24 -17 11
-12 23 -12 28 -2 20 8 -7 16 -21 19 -31z m-3403 -15 c0 -8 -2 -15 -4 -15 -2 0
-6 7 -10 15 -3 8 -1 15 4 15 6 0 10 -7 10 -15z m-18 -52 c-6 -3 -10 -9 -7 -13
3 -5 1 -11 -5 -15 -5 -3 -10 0 -10 7 0 17 22 40 29 31 3 -3 0 -8 -7 -10z m60
-42 c-8 -4 -13 -11 -13 -15 3 -23 0 -36 -9 -31 -5 3 -6 13 -3 21 3 9 0 20 -8
25 -10 6 -5 9 16 9 20 0 26 -3 17 -9z m-87 -47 c1 -5 6 -19 13 -31 10 -19 10
-23 0 -23 -9 0 -9 -3 2 -10 13 -9 13 -11 0 -20 -23 -15 -30 -12 -30 15 0 14 6
25 13 25 6 0 4 5 -5 11 -20 11 -25 53 -5 47 6 -3 12 -9 12 -14z m-35 -24 c0
-5 -2 -10 -4 -10 -3 0 -8 5 -11 10 -3 6 -1 10 4 10 6 0 11 -4 11 -10z m10 -47
c0 -14 -26 -18 -34 -4 -7 11 0 18 19 18 8 0 15 -6 15 -14z m550 -193 c0 -5 -4
-10 -10 -10 -5 0 -10 5 -10 10 0 6 5 10 10 10 6 0 10 -4 10 -10z m-20 -45 c0
-8 -4 -15 -10 -15 -5 0 -10 7 -10 15 0 8 5 15 10 15 6 0 10 -7 10 -15z m54 -9
c-3 -9 -13 -12 -27 -8 -18 5 -19 7 -4 10 9 2 17 8 17 13 0 6 4 8 10 4 5 -3 7
-12 4 -19z m51 -66 c3 -6 0 -17 -8 -25 -13 -12 -15 -12 -20 5 -7 27 14 43 28
20z m-492 -40 c3 -11 1 -20 -4 -20 -5 0 -9 9 -9 20 0 11 2 20 4 20 2 0 6 -9 9
-20z m413 -47 c-10 -10 -19 5 -10 18 6 11 8 11 12 0 2 -7 1 -15 -2 -18z m34
-48 c0 -28 4 -35 19 -35 14 0 21 -8 23 -27 3 -26 6 -28 41 -25 43 3 49 -10 12
-26 -41 -19 -75 -15 -75 8 0 11 -9 35 -20 55 -21 38 -27 85 -10 85 6 0 10 -16
10 -35z m299 -54 c46 -43 38 -113 -15 -142 -21 -11 -27 -10 -44 9 -11 12 -20
25 -20 30 0 5 -9 17 -20 27 -30 27 -24 51 17 80 21 14 41 25 44 25 4 0 21 -13
38 -29z m-159 -146 c19 -14 44 -25 56 -25 22 0 22 -2 10 -31 -9 -21 -11 -44
-6 -66 7 -28 4 -39 -11 -54 -28 -28 -41 -24 -92 26 -68 68 -90 107 -77 140 5
14 15 23 20 20 6 -4 7 -12 4 -18 -4 -7 -3 -8 2 -4 5 5 10 13 10 18 1 5 2 11 3
14 3 14 51 2 81 -20z m2100 -81 c6 -39 -10 -96 -29 -108 -39 -25 -90 84 -72
152 1 2 22 2 49 0 47 -3 47 -3 52 -44z m-2327 -624 c9 -11 13 -20 8 -20 -4 0
-16 9 -26 20 -10 11 -14 20 -9 20 5 0 17 -9 27 -20z"/>
<path d="M8013 10475 c0 -8 4 -15 9 -15 4 0 8 4 8 9 0 6 -4 12 -8 15 -5 3 -9
-1 -9 -9z"/>
<path d="M8165 10461 c-5 -10 32 -61 45 -61 4 0 3 13 -3 30 -11 30 -32 46 -42
31z"/>
<path d="M8067 10425 c-22 -16 -22 -24 2 -18 12 3 20 -2 24 -16 3 -14 10 -19
21 -15 10 4 26 -6 45 -27 25 -26 31 -30 36 -17 8 19 -22 81 -35 73 -5 -3 -11
-1 -15 5 -4 6 -11 8 -16 5 -5 -4 -9 -2 -9 3 0 16 -35 20 -53 7z"/>
<path d="M9120 10156 c0 -2 8 -10 18 -17 15 -13 16 -12 3 4 -13 16 -21 21 -21
13z"/>
<path d="M9925 10150 c-3 -5 -1 -10 4 -10 6 0 11 5 11 10 0 6 -2 10 -4 10 -3
0 -8 -4 -11 -10z"/>
<path d="M9160 10105 c7 -9 15 -13 17 -11 7 7 -7 26 -19 26 -6 0 -6 -6 2 -15z"/>
<path d="M9534 10081 c1 -22 5 -43 9 -47 4 -4 7 -16 7 -26 0 -10 8 -22 18 -25
9 -4 22 -14 29 -22 25 -32 13 5 -34 107 -14 28 -26 52 -27 52 -2 0 -3 -18 -2
-39z"/>
<path d="M6959 10078 c7 -10 17 -18 22 -18 5 0 26 -16 46 -35 20 -19 40 -35
44 -35 4 0 14 -6 21 -13 7 -7 37 -26 67 -42 29 -16 63 -39 75 -52 11 -12 24
-23 27 -23 4 0 37 -18 74 -41 37 -22 68 -39 70 -37 8 9 -16 48 -30 48 -8 0
-15 4 -15 9 0 5 -9 13 -20 16 -11 4 -18 10 -16 14 3 4 -20 22 -50 40 -29 19
-54 40 -54 47 0 8 -11 16 -25 20 -14 3 -25 10 -25 15 0 5 -7 9 -15 9 -9 0 -34
12 -56 26 -22 14 -49 26 -60 27 -10 1 -19 7 -19 13 0 7 -8 10 -20 7 -11 -3
-28 1 -38 8 -15 13 -16 12 -3 -3z"/>
<path d="M9430 10040 c0 -5 5 -10 11 -10 5 0 7 5 4 10 -3 6 -8 10 -11 10 -2 0
-4 -4 -4 -10z"/>
<path d="M9452 9998 c2 -15 11 -24 26 -26 27 -4 28 1 5 28 -23 26 -35 25 -31
-2z"/>
<path d="M7477 9783 c-4 -3 2 -13 14 -21 26 -18 35 -10 11 11 -10 10 -22 14
-25 10z"/>
<path d="M7645 9658 c11 -15 24 -28 28 -28 15 0 1 23 -23 39 l-24 16 19 -27z"/>
<path d="M7820 9539 c0 -17 -4 -19 -22 -13 -20 6 -21 5 -9 -10 14 -17 66 -22
75 -8 3 5 -6 19 -19 30 -25 22 -25 22 -25 1z"/>
<path d="M10330 9513 c0 -7 -7 -16 -15 -19 -8 -4 -15 -11 -15 -17 0 -5 8 -3
18 6 10 10 21 14 25 11 3 -4 13 0 21 9 14 13 13 15 -9 20 -17 3 -25 0 -25 -10z"/>
<path d="M10670 9475 c0 -8 2 -15 4 -15 2 0 6 7 10 15 3 8 1 15 -4 15 -6 0
-10 -7 -10 -15z"/>
<path d="M10607 9453 c-13 -12 -7 -23 13 -23 13 0 18 5 14 15 -7 16 -17 19
-27 8z"/>
<path d="M10543 9434 c-4 -10 -13 -14 -27 -10 -14 3 -36 -4 -61 -21 -27 -19
-37 -21 -32 -10 3 9 1 19 -5 23 -6 4 -8 3 -4 -4 3 -6 2 -13 -4 -17 -6 -4 -7
-11 -4 -17 5 -8 1 -9 -10 -5 -14 5 -17 3 -12 -8 3 -9 0 -15 -8 -15 -8 0 -17 6
-19 13 -3 6 -6 2 -6 -10 -1 -13 -7 -23 -16 -23 -8 0 -15 -5 -15 -11 0 -5 4 -7
10 -4 6 4 7 -1 3 -11 -5 -15 -2 -16 27 -10 19 3 42 14 52 23 10 9 18 13 18 9
0 -4 9 -2 20 4 16 9 20 8 20 -6 0 -12 -6 -15 -25 -12 -15 3 -24 1 -23 -6 5
-27 -14 -56 -38 -56 -13 0 -24 -4 -24 -10 0 -5 -6 -7 -14 -4 -8 3 -16 -2 -19
-13 -4 -16 -5 -16 -6 0 -2 32 -19 17 -23 -20 -5 -39 6 -57 30 -48 6 2 12 -3
12 -13 0 -15 2 -15 10 -2 8 12 10 11 10 -7 0 -13 5 -23 11 -23 6 0 9 -7 5 -15
-3 -9 0 -15 10 -15 17 0 44 -23 44 -38 0 -8 6 -10 50 -14 11 -1 19 -9 17 -17
-3 -19 30 -27 36 -9 2 7 2 1 0 -13 -3 -20 4 -33 28 -54 29 -24 34 -25 44 -11
7 9 15 13 18 9 4 -3 7 -2 7 4 0 5 6 10 13 10 6 0 33 9 58 21 25 12 64 22 85
24 45 3 93 24 101 44 3 8 9 12 13 9 11 -7 24 13 27 40 5 48 9 60 18 68 6 4 -8
5 -29 2 -22 -3 -37 -3 -34 1 4 3 24 8 45 11 21 3 43 9 49 14 6 5 15 5 19 1 5
-4 5 -1 1 6 -4 6 -2 12 4 12 6 0 8 5 5 10 -9 14 8 12 24 -2 11 -11 13 -10 8 4
-5 13 -1 16 19 12 14 -3 24 0 24 7 0 8 6 7 17 -2 15 -12 16 -12 10 5 -5 13 -1
24 14 37 22 19 21 19 -22 14 -24 -3 -63 -5 -86 -5 -32 1 -43 -3 -43 -14 0 -12
-6 -14 -22 -8 -27 10 -39 9 -55 -1 -9 -5 -13 -2 -13 9 0 13 -3 14 -15 4 -10
-9 -15 -9 -15 -1 0 6 -7 11 -16 11 -8 0 -12 -4 -9 -10 3 -6 -1 -7 -9 -4 -9 3
-14 9 -11 13 2 4 -2 8 -9 8 -8 0 -11 -8 -8 -19 6 -24 -18 -16 -36 12 -9 15 -9
18 1 15 6 -3 19 0 27 5 13 9 13 11 0 21 -11 8 -12 12 -2 16 17 7 15 36 -2 30
-9 -4 -13 -1 -10 6 3 9 -13 12 -56 12 -33 0 -60 -4 -60 -9 0 -6 -5 -5 -12 2
-14 14 -42 16 -34 3 4 -5 -5 -4 -18 2 -25 12 -25 27 0 27 20 0 17 18 -5 30
-26 13 -31 13 -38 -6z m437 -224 c0 -5 -2 -10 -4 -10 -3 0 -8 5 -11 10 -3 6
-1 10 4 10 6 0 11 -4 11 -10z m-55 -80 c3 -5 -3 -10 -15 -10 -12 0 -18 5 -15
10 3 6 10 10 15 10 5 0 12 -4 15 -10z m-74 -43 c-1 -12 -15 -9 -19 4 -3 6 1
10 8 8 6 -3 11 -8 11 -12z m45 -13 c-5 -14 -9 -15 -19 -5 -9 9 -9 14 3 21 18
11 24 6 16 -16z"/>
<path d="M10907 9396 c-4 -10 -1 -13 9 -9 15 6 19 23 5 23 -5 0 -11 -7 -14
-14z"/>
<path d="M10830 9380 c12 -8 11 -10 -7 -10 -23 0 -32 -23 -13 -35 5 -3 7 0 4
9 -4 10 4 16 25 21 34 7 33 25 -2 25 -18 0 -19 -2 -7 -10z"/>
<path d="M10305 9350 c3 -5 8 -10 11 -10 2 0 4 5 4 10 0 6 -5 10 -11 10 -5 0
-7 -4 -4 -10z"/>
<path d="M11055 9170 c3 -5 8 -10 11 -10 2 0 4 5 4 10 0 6 -5 10 -11 10 -5 0
-7 -4 -4 -10z"/>
<path d="M10338 9093 c7 -3 16 -2 19 1 4 3 -2 6 -13 5 -11 0 -14 -3 -6 -6z"/>
<path d="M10420 8995 c0 -8 5 -15 10 -15 6 0 10 7 10 15 0 8 -4 15 -10 15 -5
0 -10 -7 -10 -15z"/>
<path d="M10500 8940 c0 -5 5 -10 10 -10 6 0 10 5 10 10 0 6 -4 10 -10 10 -5
0 -10 -4 -10 -10z"/>
<path d="M10485 8891 c-3 -6 -1 -11 4 -11 6 0 20 -9 30 -19 11 -11 29 -24 40
-30 17 -10 20 -9 15 4 -4 8 -10 15 -15 15 -4 0 -6 6 -3 14 3 7 -3 16 -13 19
-10 2 -25 8 -34 12 -10 3 -20 2 -24 -4z"/>
<path d="M7460 8544 c0 -10 -5 -26 -10 -34 -8 -12 -11 -13 -22 -2 -11 11 -9
16 7 29 18 14 13 15 -68 9 -48 -4 -99 -11 -115 -16 -33 -11 -101 -19 -164 -19
-60 -1 -57 -25 5 -35 29 -5 37 -10 28 -16 -8 -4 -22 -7 -32 -5 -10 2 -21 0
-24 -6 -4 -5 0 -9 7 -9 7 -1 -3 -9 -22 -20 l-35 -18 52 2 c30 1 54 -2 57 -8 3
-7 5 -7 5 0 1 9 12 9 39 2 26 -6 46 -6 67 3 17 7 41 14 54 15 13 2 41 10 62
18 21 9 45 13 52 10 8 -3 19 2 26 10 7 9 29 18 50 22 20 3 43 8 51 11 8 4 19
5 24 4 5 -1 32 3 59 10 53 12 48 29 -7 24 -17 -1 -35 1 -41 5 -18 14 -75 19
-75 7 0 -7 -7 -3 -15 7 -15 20 -15 20 -15 0z"/>
<path d="M7832 8488 c2 -6 10 -14 16 -16 7 -2 10 2 6 12 -7 18 -28 22 -22 4z"/>
<path d="M8086 8485 c-3 -8 -1 -15 4 -15 6 0 10 7 10 15 0 8 -2 15 -4 15 -2 0
-6 -7 -10 -15z"/>
<path d="M6968 8393 c7 -3 16 -2 19 1 4 3 -2 6 -13 5 -11 0 -14 -3 -6 -6z"/>
<path d="M6870 8310 c-8 -5 -11 -12 -7 -16 4 -4 15 0 24 9 18 18 8 23 -17 7z"/>
<path d="M7190 8280 c-13 -8 -12 -10 3 -10 9 0 17 5 17 10 0 12 -1 12 -20 0z"/>
<path d="M7077 8245 c-9 -8 -17 -10 -19 -5 -2 5 -13 7 -25 4 -13 -4 -21 -10
-18 -14 4 -7 -48 -34 -70 -35 -5 -1 -30 -9 -54 -19 -32 -14 -39 -21 -28 -27 8
-5 29 -4 48 1 19 6 48 9 64 8 30 -1 213 40 228 52 4 4 5 13 2 21 -4 10 -19 13
-50 12 -25 -1 -45 2 -45 8 0 14 -17 11 -33 -6z"/>
<path d="M7195 8180 c3 -5 18 -10 32 -10 32 0 22 13 -13 18 -16 2 -23 -1 -19
-8z"/>
<path d="M8345 8040 c-3 -5 1 -10 10 -10 9 0 13 5 10 10 -3 6 -8 10 -10 10 -2
0 -7 -4 -10 -10z"/>
<path d="M7664 7952 c-11 -10 -23 -23 -25 -29 -6 -18 -99 -113 -110 -113 -15
0 -107 -48 -114 -60 -4 -6 -32 -23 -63 -38 -32 -14 -64 -33 -72 -41 -24 -23
-238 -123 -250 -116 -5 3 -10 1 -10 -6 0 -7 -3 -9 -7 -6 -3 4 -12 -2 -20 -13
-8 -11 -20 -20 -26 -20 -7 0 -70 -29 -140 -65 -69 -35 -155 -76 -189 -90 -35
-15 -76 -32 -93 -40 -16 -7 -50 -18 -74 -25 -45 -12 -76 -34 -67 -48 2 -4 -4
-9 -15 -9 -11 -1 -17 2 -14 8 10 15 -22 10 -35 -6 -7 -8 -20 -15 -29 -16 -10
0 -11 -2 -3 -6 23 -9 13 -25 -12 -19 -14 3 -28 2 -31 -4 -3 -5 -1 -10 4 -10 6
0 11 -7 11 -15 0 -8 -6 -15 -14 -15 -8 0 -17 -6 -19 -12 -3 -7 -6 -1 -6 15 -1
30 -8 32 -46 15 -18 -8 -22 -14 -13 -19 10 -7 10 -11 0 -21 -17 -17 -15 -25 9
-31 12 -3 18 -10 14 -16 -8 -14 -35 -14 -35 0 0 6 -6 16 -13 24 -11 11 -15 10
-25 -6 -9 -15 -9 -17 2 -13 8 3 16 -3 19 -15 3 -12 0 -21 -6 -21 -6 0 -18 -7
-28 -16 -9 -8 -27 -16 -40 -18 -48 -5 -104 -44 -66 -47 6 0 23 -2 35 -3 13 -2
38 7 55 18 68 46 209 108 219 98 7 -7 17 -5 31 8 11 11 24 17 29 14 4 -3 8 2
8 11 0 9 5 13 10 10 6 -3 17 1 26 9 9 9 20 14 25 11 5 -4 9 -3 9 2 0 31 98 99
101 70 3 -26 -4 -43 -24 -62 -25 -23 -49 -28 -59 -12 -5 8 -11 0 -19 -20 -6
-18 -14 -31 -17 -29 -4 2 -13 -3 -21 -11 -11 -12 -10 -15 8 -20 16 -4 19 -9
10 -19 -10 -12 -39 -9 -37 4 3 30 -3 34 -27 18 -14 -9 -30 -14 -35 -11 -15 9
-12 -2 4 -18 13 -13 12 -17 -5 -35 -10 -12 -19 -27 -19 -33 0 -7 -7 -4 -15 7
-11 14 -17 16 -23 7 -4 -7 -18 -14 -30 -16 -12 -2 -25 -6 -28 -10 -4 -4 -15
-7 -25 -7 -10 0 -23 -8 -28 -17 -6 -10 -11 -14 -11 -9 0 5 -7 2 -16 -5 -9 -7
-26 -18 -37 -24 -13 -6 -22 -21 -24 -38 -2 -24 0 -26 13 -12 13 13 25 16 49
15 3 -1 13 6 21 15 9 8 22 15 30 15 8 0 14 5 14 10 0 6 11 10 25 10 14 0 33 9
42 20 10 11 28 20 41 20 34 0 145 39 158 55 6 8 14 12 17 8 9 -8 65 16 102 43
17 12 49 30 73 40 23 10 42 25 42 32 0 7 5 10 11 7 16 -10 114 33 138 61 11
13 32 24 45 24 16 0 27 7 31 21 4 11 18 24 32 30 31 11 36 11 28 -1 -3 -6 1
-7 9 -4 9 3 14 10 11 14 -3 5 2 15 10 24 18 18 11 23 -35 27 -37 3 -100 -17
-100 -32 0 -5 -5 -9 -11 -9 -5 0 -7 5 -3 12 4 6 -3 4 -16 -5 -17 -12 -26 -13
-41 -4 -14 9 -16 14 -6 26 9 11 9 13 0 8 -6 -4 -14 -3 -17 2 -4 5 14 17 38 26
25 10 53 26 62 36 9 11 22 19 28 19 6 0 22 9 36 20 14 11 32 20 41 20 8 0 24
8 35 19 12 10 50 32 85 48 35 17 95 53 133 82 38 28 75 51 82 51 8 0 14 5 14
10 0 6 6 10 13 10 7 0 19 9 27 20 8 11 22 20 32 20 10 0 18 4 18 10 0 6 3 9 8
9 26 -4 47 6 81 41 21 22 45 40 53 40 29 0 58 31 58 63 0 21 10 41 32 64 33
35 28 45 -8 15z m-887 -643 c-1 -10 -5 -15 -9 -13 -4 3 -8 -7 -8 -21 0 -14 -3
-24 -7 -22 -10 6 -40 -25 -33 -33 3 -3 -6 -7 -20 -8 -14 -2 -30 -8 -37 -14
-12 -10 -83 9 -83 23 0 14 78 59 104 59 15 0 25 4 21 10 -3 6 3 10 14 10 12 0
21 6 21 13 0 7 9 13 19 13 12 0 19 -7 18 -17z m-433 -105 c3 -8 2 -12 -4 -9
-6 3 -10 10 -10 16 0 14 7 11 14 -7z m-94 -104 c0 -5 -2 -10 -4 -10 -3 0 -8 5
-11 10 -3 6 -1 10 4 10 6 0 11 -4 11 -10z"/>
<path d="M8186 7900 c-32 -32 6 -36 51 -6 23 16 31 26 21 26 -9 0 -20 -4 -23
-10 -3 -5 -11 -10 -16 -10 -6 0 -7 5 -4 10 10 17 -9 10 -29 -10z"/>
<path d="M8157 7863 c-4 -3 -7 -11 -7 -17 0 -6 5 -5 12 2 6 6 9 14 7 17 -3 3
-9 2 -12 -2z"/>
<path d="M11240 7841 c0 -12 5 -21 10 -21 6 0 10 6 10 14 0 8 -4 18 -10 21 -5
3 -10 -3 -10 -14z"/>
<path d="M7365 7830 c3 -5 11 -10 16 -10 6 0 7 5 4 10 -3 6 -11 10 -16 10 -6
0 -7 -4 -4 -10z"/>
<path d="M11276 7821 c-3 -5 1 -11 9 -14 9 -4 12 -1 8 9 -6 16 -10 17 -17 5z"/>
<path d="M7925 7795 c-16 -7 -46 -28 -66 -46 -48 -46 -88 -79 -94 -79 -11 0
-75 -64 -75 -74 0 -8 2 -8 8 0 4 6 19 17 33 25 46 24 129 83 129 91 0 5 5 8
11 8 12 0 94 78 88 84 -2 2 -17 -2 -34 -9z"/>
<path d="M6520 7763 c-8 -3 -29 -11 -47 -19 -17 -8 -36 -14 -42 -14 -7 0 -29
-9 -51 -20 -21 -11 -68 -29 -104 -41 -36 -12 -66 -27 -66 -33 -1 -30 -107 -95
-220 -135 -36 -13 -79 -30 -97 -37 -17 -8 -37 -14 -45 -14 -8 0 -18 -4 -24 -9
-5 -5 -49 -21 -99 -36 -124 -36 -155 -48 -155 -56 0 -15 42 -4 255 67 77 25
163 51 190 57 28 6 52 14 55 17 6 6 22 15 97 59 29 17 59 42 68 55 8 13 34 31
58 42 23 10 56 28 72 40 17 11 56 27 88 34 55 13 97 33 87 43 -3 2 -12 2 -20
0z"/>
<path d="M7194 7740 c0 -11 5 -19 11 -17 5 2 10 10 10 17 0 7 -5 15 -10 17 -6
2 -11 -6 -11 -17z"/>
<path d="M7147 7719 c-5 -17 -3 -18 11 -7 9 7 18 13 20 14 2 1 -4 4 -12 7 -8
3 -16 -2 -19 -14z"/>
<path d="M7090 7693 c0 -7 6 -13 14 -13 8 0 16 6 19 13 3 8 -3 13 -14 13 -11
0 -19 -6 -19 -13z"/>
<path d="M7018 7673 c-17 -3 -28 -11 -28 -20 0 -9 -6 -13 -15 -9 -8 3 -15 1
-15 -5 0 -6 -4 -7 -10 -4 -6 3 -10 -4 -10 -16 0 -21 1 -21 18 -6 10 10 24 17
31 17 7 0 25 9 41 20 15 11 30 17 34 13 3 -3 6 -1 6 5 0 12 -3 12 -52 5z"/>
<path d="M6845 7580 c-3 -5 -1 -10 4 -10 6 0 11 5 11 10 0 6 -2 10 -4 10 -3 0
-8 -4 -11 -10z"/>
<path d="M7655 7580 c-3 -5 -2 -10 4 -10 5 0 13 5 16 10 3 6 2 10 -4 10 -5 0
-13 -4 -16 -10z"/>
<path d="M6795 7561 c-6 -5 -21 -11 -34 -13 -14 -1 -26 -9 -28 -15 -3 -9 9 -8
41 4 25 10 46 21 46 25 0 11 -14 10 -25 -1z"/>
<path d="M7605 7550 c-4 -6 -10 -8 -15 -5 -5 3 -20 0 -33 -6 -17 -8 -23 -17
-20 -30 4 -12 -1 -21 -13 -25 -50 -16 -108 -51 -110 -66 -3 -20 2 -22 19 -8
32 27 115 82 142 94 17 8 39 24 49 35 16 18 17 21 3 21 -9 0 -19 -5 -22 -10z"/>
<path d="M6670 7528 c-5 -13 -9 -19 -9 -14 -1 15 -30 -27 -31 -44 0 -9 3 -11
8 -4 4 5 22 16 39 23 25 10 32 19 31 37 -3 30 -26 31 -38 2z"/>
<path d="M7015 7420 c3 -5 8 -10 11 -10 2 0 4 5 4 10 0 6 -5 10 -11 10 -5 0
-7 -4 -4 -10z"/>
<path d="M7200 7405 c-14 -16 -10 -18 14 -9 9 3 16 10 16 15 0 14 -16 11 -30
-6z"/>
<path d="M7095 7361 c-3 -5 -1 -12 5 -16 5 -3 10 1 10 9 0 18 -6 21 -15 7z"/>
<path d="M7267 7341 l-15 -30 27 12 c40 17 48 27 31 37 -23 15 -27 12 -43 -19z"/>
<path d="M7045 7349 c-4 -6 -5 -12 -2 -15 2 -3 7 2 10 11 7 17 1 20 -8 4z"/>
<path d="M5955 7340 c-3 -5 1 -10 9 -10 8 0 18 5 21 10 3 6 -1 10 -9 10 -8 0
-18 -4 -21 -10z"/>
<path d="M5471 7319 c-13 -5 -22 -12 -19 -15 3 -3 21 2 39 10 37 16 19 21 -20
5z"/>
<path d="M7135 7270 c-3 -5 1 -10 9 -10 9 0 16 5 16 10 0 6 -4 10 -9 10 -6 0
-13 -4 -16 -10z"/>
<path d="M6830 7121 c0 -4 -11 -7 -25 -6 -13 2 -30 -3 -36 -11 -10 -13 -6 -14
25 -12 24 1 41 9 47 20 6 12 6 18 -1 18 -5 0 -10 -4 -10 -9z"/>
<path d="M5858 6979 c-30 -17 -20 -29 20 -27 22 0 44 -2 50 -6 6 -3 14 -1 17
5 4 6 -2 13 -14 16 -12 3 -21 9 -21 14 0 12 -31 11 -52 -2z"/>
<path d="M6195 6980 c-3 -5 1 -10 10 -10 9 0 13 5 10 10 -3 6 -8 10 -10 10 -2
0 -7 -4 -10 -10z"/>
<path d="M8530 6145 c-7 -9 -11 -17 -9 -20 3 -2 10 5 17 15 14 24 10 26 -8 5z"/>
<path d="M8496 5925 c-3 -8 -1 -15 4 -15 6 0 10 7 10 15 0 8 -2 15 -4 15 -2 0
-6 -7 -10 -15z"/>
<path d="M12219 5845 c-3 -6 -3 -21 1 -35 3 -14 8 -20 11 -15 3 6 3 21 -1 35
-3 14 -8 20 -11 15z"/>
<path d="M12235 5755 c4 -35 36 -117 51 -135 12 -12 12 -9 4 20 -5 18 -11 50
-12 69 -2 33 -23 71 -39 71 -3 0 -5 -11 -4 -25z"/>
<path d="M8522 5640 c0 -14 2 -19 5 -12 2 6 2 18 0 25 -3 6 -5 1 -5 -13z"/>
<path d="M8450 4696 c0 -2 7 -6 15 -10 8 -3 15 -1 15 4 0 6 -7 10 -15 10 -8 0
-15 -2 -15 -4z"/>
<path d="M8445 4240 c3 -5 8 -10 11 -10 2 0 4 5 4 10 0 6 -5 10 -11 10 -5 0
-7 -4 -4 -10z"/>
<path d="M8474 4153 c1 -45 26 -59 26 -14 0 17 -5 31 -11 31 -5 0 -7 5 -4 10
3 6 2 10 -3 10 -5 0 -9 -17 -8 -37z"/>
<path d="M8500 4031 c0 -5 5 -13 10 -16 6 -3 10 -2 10 4 0 5 -4 13 -10 16 -5
3 -10 2 -10 -4z"/>
<path d="M11629 3980 c-54 -57 -81 -146 -81 -275 -1 -114 12 -171 48 -215 31
-36 59 -38 116 -9 52 27 101 78 130 137 19 39 23 63 23 137 0 77 -4 98 -26
140 -27 53 -115 125 -152 125 -11 0 -37 -18 -58 -40z"/>
<path d="M8747 3877 l-39 -42 4 -101 c4 -87 9 -110 36 -168 18 -38 43 -82 57
-98 31 -36 26 -47 -10 -24 -22 14 -25 15 -25 1 0 -8 4 -15 8 -15 4 0 13 -13
19 -29 9 -26 84 -91 104 -91 12 0 -21 72 -40 88 -14 11 -10 12 24 7 22 -4 44
-11 50 -16 5 -5 17 -9 27 -9 58 0 21 265 -58 422 -31 60 -81 118 -103 117 -9
0 -33 -19 -54 -42z"/>
<path d="M11847 3514 c-4 -4 -7 -14 -7 -23 0 -11 3 -12 11 -4 6 6 10 16 7 23
-2 6 -7 8 -11 4z"/>
<path d="M8780 3364 c0 -5 16 -22 35 -37 20 -16 33 -32 30 -38 -4 -5 1 -9 10
-9 9 0 15 5 13 12 -5 15 -88 83 -88 72z"/>
<path d="M12105 3313 c-9 -13 -22 -42 -30 -63 -7 -21 -26 -64 -41 -95 -29 -58
-29 -59 11 -80 6 -3 5 -7 -3 -11 -17 -8 -5 -24 20 -24 18 0 19 2 7 16 -12 15
-11 16 6 11 11 -3 54 -13 95 -22 41 -9 83 -21 92 -26 31 -16 132 -49 136 -44
6 5 -94 52 -133 61 l-30 8 27 4 c15 2 37 -2 50 -9 13 -7 46 -14 73 -15 28 -1
70 -10 95 -19 25 -9 70 -23 100 -31 30 -8 63 -19 72 -24 10 -6 30 -9 45 -9 21
1 23 3 8 6 -66 15 -335 114 -335 123 0 3 23 4 50 0 28 -4 53 -3 55 0 5 7 -62
30 -87 30 -9 0 -32 7 -53 15 -30 13 -35 18 -25 30 21 25 -6 66 -78 120 -101
76 -108 78 -127 48z"/>
<path d="M7435 3291 c22 -10 60 -25 85 -31 64 -17 90 -31 83 -44 -4 -6 1 -5
10 3 14 11 26 10 78 -8 34 -11 65 -19 69 -16 4 2 22 0 41 -6 39 -11 173 -35
241 -43 76 -9 252 -47 263 -57 13 -13 -105 -2 -200 18 -88 18 -183 34 -215 36
-14 1 -29 5 -35 8 -5 3 -20 0 -33 -6 -20 -11 -21 -13 -7 -19 9 -3 25 -6 36 -6
10 0 45 -9 77 -20 48 -17 326 -49 426 -50 15 0 16 -3 6 -15 -11 -13 -8 -15 19
-15 18 0 30 4 26 10 -10 16 43 23 114 16 36 -4 92 -10 124 -13 l57 -6 -18 44
c-24 55 -36 106 -34 140 3 38 -35 46 -93 19 -24 -11 -54 -20 -67 -20 -21 0
-20 -2 10 -20 18 -11 30 -25 27 -30 -11 -18 -67 -10 -220 29 -88 22 -152 34
-154 29 -2 -6 -7 -5 -11 2 -5 9 -9 9 -14 1 -4 -6 1 -14 11 -17 10 -3 40 -15
66 -25 26 -11 51 -17 56 -15 5 3 14 -1 20 -8 10 -12 9 -14 -6 -11 -10 2 -47 9
-83 15 -36 6 -101 19 -145 30 -44 10 -105 22 -135 25 -53 5 -78 10 -200 40
-30 7 -77 16 -105 20 -27 4 -55 11 -60 15 -6 5 -20 9 -30 8 -11 0 -42 3 -70 6
l-50 7 40 -20z"/>
<path d="M8035 3233 c11 -3 24 -9 30 -14 15 -14 45 -10 45 6 0 11 -11 15 -47
14 -27 -1 -39 -3 -28 -6z"/>
<path d="M7731 3146 c13 -11 50 -26 45 -18 -3 6 0 13 6 15 7 3 -2 6 -21 6 -19
1 -32 -1 -30 -3z"/>
<path d="M12100 3030 c20 -13 33 -13 25 0 -3 6 -14 10 -23 10 -15 0 -15 -2 -2
-10z"/>
<path d="M12145 3020 c3 -5 11 -10 16 -10 6 0 7 5 4 10 -3 6 -11 10 -16 10 -6
0 -7 -4 -4 -10z"/>
<path d="M10216 2915 c-22 -12 -37 -13 -58 -6 -17 6 -28 6 -28 0 0 -5 -10 -9
-22 -9 -28 0 -88 -22 -88 -32 0 -4 -5 -8 -11 -8 -35 0 -172 -121 -163 -145 4
-9 1 -15 -8 -15 -13 0 -15 -32 -4 -90 15 -83 17 -123 6 -130 -9 -5 -9 -17 1
-49 7 -22 15 -39 17 -36 3 3 14 -7 24 -22 10 -16 18 -22 18 -15 0 7 6 12 13
11 26 -5 72 15 98 42 21 21 34 27 58 24 20 -3 37 2 48 13 19 20 112 20 123 1
6 -8 17 -6 43 6 34 16 77 14 77 -4 0 -5 21 -7 46 -5 42 2 50 -1 80 -32 19 -19
28 -34 21 -34 -6 0 -4 -5 6 -11 9 -5 17 -17 17 -25 0 -8 5 -12 10 -9 6 4 8 10
5 15 -3 4 4 6 15 3 11 -3 20 0 20 6 0 6 3 10 8 9 24 -7 52 27 66 79 9 32 21
66 26 76 8 12 7 16 -2 15 -9 -2 -12 8 -10 32 11 146 -6 214 -57 227 -14 3 -34
17 -44 30 -26 33 -84 60 -175 83 -93 24 -137 25 -176 5z"/>
<path d="M12960 2876 c0 -2 7 -7 16 -10 8 -3 12 -2 9 4 -6 10 -25 14 -25 6z"/>
<path d="M12687 2855 c4 -12 0 -23 -12 -31 -17 -13 -16 -14 13 -14 24 0 30 4
26 15 -5 13 -2 14 22 5 16 -6 38 -15 50 -21 11 -6 34 -9 50 -7 24 2 16 8 -49
31 -43 15 -85 31 -93 34 -10 4 -12 0 -7 -12z"/>
<path d="M11217 2820 c-14 -17 -15 -20 -2 -20 9 0 18 7 22 15 9 24 -1 27 -20
5z"/>
<path d="M9430 2816 c0 -4 7 -14 15 -22 8 -9 15 -11 15 -6 0 5 -7 15 -15 22
-8 7 -15 9 -15 6z"/>
</g>
</svg>
